<svg width="286" height="260" viewBox="0 0 286 260" fill="none" xmlns="http://www.w3.org/2000/svg">
<path fill-rule="evenodd" clip-rule="evenodd" d="M169.701 0.726459C162.746 2.2374 160.749 3.61113 148.694 15.1825C145.6 18.1524 141.408 21.7799 139.38 23.2432C127.284 31.9679 119.895 38.2904 112.652 46.1158C105.893 53.4181 103.737 55.8766 103.926 56.0653C104.153 56.2936 108.816 55.1171 112.531 53.8945C117.303 52.3236 123.926 49.2615 127.264 47.0833C131.855 44.0871 132.049 44.1123 128.654 47.2612C122.208 53.239 110.655 58.2387 103.112 58.3127C101.353 58.3298 100.54 59.0057 93.2009 66.5534C88.8045 71.0761 84.6042 75.4449 83.8675 76.2623L82.5281 77.7491L84.939 77.368C88.9567 76.7334 95.0252 74.9984 100.163 73.0163C105.871 70.814 116.543 65.3303 119.228 63.2207C122.566 60.5965 122.778 60.827 119.763 63.8038C112.423 71.052 101.585 76.6305 90.6325 78.7975C87.6928 79.3796 86.9026 79.8491 83.0639 83.2955C80.7065 85.4121 77.1995 88.681 75.2702 90.5591C73.3409 92.4378 69.6072 95.904 66.974 98.2623C60.3413 104.201 60.6493 103.89 61.4005 103.89C61.7562 103.89 66.053 102.572 70.9482 100.962C78.8453 98.3636 85.5439 96.4094 95.1184 93.9112C102.176 92.069 115.907 87.4719 122.71 84.6724C128.062 82.47 138.576 76.7538 143.175 73.547C151.968 67.4137 157.484 61.5891 161.139 54.5795C163.532 49.9904 164.231 47.415 164.231 43.1931C164.231 35.6678 160.442 31.4041 152.416 29.8974C146.214 28.7333 145.917 28.5087 150.034 28.0997C158.63 27.2459 165.842 30.9008 168.039 37.2238C168.997 39.9798 168.979 46.7424 168.007 49.7557C162.951 65.4214 146.272 79.483 121.103 89.2964C111.842 92.9073 101.527 95.8005 84.2999 99.6194L79.3136 100.725L65.9196 114.288C58.5529 121.747 50.8985 129.018 48.9093 130.445C46.9205 131.872 45.2929 133.185 45.2929 133.362C45.2929 133.539 46.643 133.967 48.2932 134.314C52.0054 135.093 55.4616 134.468 60.0263 132.192C64.5813 129.922 67.9641 127.246 74.2667 120.929L79.7684 115.414L76.3267 119.944C74.4333 122.435 70.7896 126.671 68.2292 129.357L63.5735 134.241L66.0862 133.907C67.4679 133.724 69.5628 133.118 70.7414 132.563C72.9895 131.502 81.4459 123.38 85.5064 118.38C89.1603 113.883 94.775 107.582 96.9871 105.498C98.5457 104.03 98.0195 105.019 94.565 110.054C92.1375 113.591 88.4788 118.618 86.4343 121.225C84.3899 123.833 82.8158 126.064 82.9363 126.184C83.0569 126.305 84.6406 125.662 86.4552 124.754C88.6309 123.667 91.6735 121.272 95.3879 117.724L101.021 112.344L104.097 112.717C110.439 113.488 120.608 116.678 125.226 119.345L127.906 120.893L126.185 122.119C124.646 123.215 122.978 125.987 122.978 127.448C122.978 127.747 124.002 127.454 125.255 126.795C127.524 125.601 131.634 125.312 137.575 125.926L139.582 126.134L139.584 145.947L139.586 165.76L136.774 163.047C132.277 158.711 131.517 158.092 126.996 155.086C116.31 147.983 106.502 144.289 92.7075 142.175C85.1576 141.018 72.4376 141.364 63.2906 142.976C59.782 143.594 56.8047 143.993 56.674 143.862C56.5433 143.731 57.2092 142.662 58.1543 141.485C59.0989 140.309 59.7118 139.087 59.5157 138.77C59.1026 138.101 56.0552 138.009 55.0684 138.636C54.3285 139.107 47.4359 149.457 47.4359 150.099C47.4359 150.319 48.4062 152.936 49.5924 155.914L51.7488 161.33L47.2286 166.901C42.627 172.572 42.088 173.987 44.1405 175.005C44.627 175.246 63.7096 175.507 86.5463 175.583L128.068 175.722L130.934 177.076C134.38 178.703 140.216 180 144.089 180C147.538 180 154.208 178.352 156.913 176.832C158.884 175.725 159.348 175.712 197.866 175.707C219.294 175.705 238.067 175.553 239.584 175.371C241.698 175.117 242.465 174.771 242.867 173.888C243.319 172.895 242.769 171.956 238.905 167.122C236.437 164.035 234.418 161.385 234.417 161.235C234.416 161.083 235.506 158.448 236.838 155.377L239.26 149.794L235.83 144.128C233.943 141.011 230.191 134.843 227.491 130.421C224.791 126 220.605 119.084 218.188 115.053C213.15 106.649 214.415 107.391 203.609 106.497C186.938 105.119 167.156 108.548 159.255 114.186L157.534 115.414L161.82 115.776C165.029 116.047 166.712 115.933 168.517 115.322C178.706 111.874 191.803 110.409 203.106 111.456C207.066 111.822 210.306 112.273 210.306 112.457C210.306 112.641 212.261 115.914 214.65 119.731C221.345 130.427 229.194 143.599 228.981 143.78C228.876 143.87 225.174 143.36 220.754 142.646C213.721 141.51 211.512 141.38 203.074 141.606C196.182 141.79 191.967 142.179 188.305 142.967C173.47 146.161 160.089 152.871 150.569 161.891L146.283 165.952L146.143 146.362C146.065 135.588 146.094 126.68 146.207 126.567C146.519 126.255 152.454 129.583 154.664 131.308C156.296 132.582 156.669 132.695 156.937 131.995C157.621 130.213 154.516 126.387 150.837 124.479C147.899 122.956 150.247 122.859 154.417 124.332C156.964 125.231 158.408 126.136 159.686 127.629C161.591 129.855 162.402 129.587 161.818 126.925C161.547 125.691 161.655 125.33 162.298 125.33C163.589 125.33 168.779 127.848 170.537 129.327C172.411 130.906 172.875 130.664 172.237 128.439C171.464 125.742 170.366 124.515 167.359 122.99L164.499 121.538L166.642 121.889C170.495 122.519 175.092 124.299 177.047 125.918L178.965 127.506L179.138 126.115C179.651 121.979 172.035 118.189 161.569 117.375L157.032 117.022L152.09 109.786C149.372 105.806 147.135 102.286 147.118 101.963C147.101 101.641 147.6 100.917 148.228 100.355C148.855 99.7936 150.662 97.5891 152.244 95.4564C153.825 93.3237 156.144 90.9359 157.398 90.1507C158.652 89.365 159.798 88.576 159.945 88.3975C160.092 88.2185 161.057 87.4381 162.088 86.6625C163.12 85.887 164.495 84.8027 165.145 84.2533C165.794 83.7044 167.482 82.3039 168.895 81.1413C175.476 75.7274 181.276 67.5825 185.711 57.5275C187.171 54.2161 187.962 49.2942 188.271 41.5926C188.596 33.4692 188.659 33.1107 189.982 31.7884C191.681 30.0909 196.096 28.8673 200.55 28.8587C207.352 28.8458 216.401 30.2035 220.819 31.8993C223.221 32.8218 219.277 25.0972 215.329 21.1475C211.936 17.7531 206.1 14.4161 201.562 13.2755C199.454 12.7454 198.221 11.8728 194.865 8.53576C190.128 3.82606 186.655 1.78503 181.525 0.697516C177.097 -0.240994 174.121 -0.23349 169.701 0.726459ZM178.429 10.2959L176.822 10.9863L178.87 11.3754C180.34 11.6541 180.779 11.9446 180.427 12.4024C179.348 13.8018 179.333 14.8995 180.373 16.2223C181.65 17.8469 182.945 17.9648 184.62 16.6082C186.386 15.1777 186.273 12.4399 184.382 10.8121C182.763 9.4196 180.854 9.25398 178.429 10.2959ZM195.094 17.4138C194.338 17.6303 194.255 17.8142 194.766 18.1304C195.26 18.4359 195.018 18.7849 193.907 19.3669L192.36 20.1779L194.503 20.5022C201.851 21.6133 209.528 23.3284 213.789 24.8099C216.365 25.706 210.764 21.6443 206.678 19.6526C202.311 17.5248 197.767 16.6463 195.094 17.4138ZM138.486 56.5069C136.383 58.7034 127.497 65.6712 122.71 68.8801C119.743 70.8681 108.227 77.5728 103.578 80.0179C97.7227 83.0982 107.429 79.6374 114.674 76.0623C124.433 71.246 132.421 65.31 137.249 59.2855C141.279 54.2563 141.834 53.0123 138.486 56.5069ZM138.181 96.6608L131.149 103.815L135.1 110.363C137.273 113.963 139.051 117.111 139.051 117.357C139.051 117.86 140.237 118.151 144.102 118.598C146.649 118.892 149.766 118.092 149.766 117.142C149.766 116.91 147.336 113.441 144.366 109.435C141.396 105.428 138.839 101.818 138.684 101.413C138.528 101.008 139.13 99.8467 140.021 98.8315C141.916 96.672 145.595 90.5489 145.368 89.9315C145.282 89.6978 142.048 92.7261 138.181 96.6608ZM115.477 100.481C113.993 100.98 111.632 102.597 109.336 104.686L105.605 108.078L108.264 108.471C115.102 109.48 126.428 114.211 131.102 118.011C134.686 120.924 135.944 120.738 133.55 117.65C132.597 116.42 131.679 115.293 131.508 115.146C131.338 114.998 129.441 112.408 127.294 109.389C125.147 106.371 122.574 103.397 121.576 102.78C120.536 102.136 119.763 101.221 119.763 100.63C119.763 99.397 118.794 99.3632 115.477 100.481ZM70.4735 147.065C65.6935 147.726 57.1192 149.589 54.7957 150.473C53.4364 150.989 53.4343 151.001 54.3135 152.941C55.063 154.594 55.4011 154.848 56.5401 154.609C57.2789 154.454 60.8969 153.665 64.5802 152.856C70.571 151.54 72.3508 151.384 81.4566 151.379C88.9524 151.376 92.8366 151.616 96.1899 152.292C107.396 154.55 117.301 158.771 125.121 164.619C129.177 167.652 134.001 170.223 134.57 169.653C134.986 169.237 125.294 160.326 121.969 158.067C116.615 154.43 108.96 151.064 101.623 149.12C92.5195 146.709 79.3478 145.841 70.4735 147.065ZM195.305 146.997C192.506 147.383 188.952 147.965 187.407 148.291C180.186 149.815 169.986 154.129 163.983 158.198C160.62 160.478 151.713 168.727 152.147 169.161C152.693 169.707 156.917 167.543 160.613 164.821C169.611 158.197 177.035 154.939 189.144 152.301C192.41 151.589 195.788 151.377 203.342 151.409C213.091 151.451 217.19 151.915 226.135 153.991C228.074 154.44 229.959 154.809 230.323 154.809C230.936 154.809 232.273 151.981 232.273 150.683C232.273 150.06 224.861 148.166 219.077 147.31C212.896 146.395 200.835 146.236 195.305 146.997ZM73.1523 156.452C66.1639 157.507 57.7927 159.277 57.2596 159.81C57.153 159.917 57.3946 160.825 57.797 161.828C58.1993 162.831 58.6703 164.057 58.8433 164.55C59.1299 165.368 59.4128 165.381 62.0032 164.694C70.6718 162.398 73.716 162.094 88.1536 162.085C103.175 162.075 106.19 162.391 117.754 165.188C120.627 165.883 122.978 166.382 122.978 166.297C122.978 166.212 121.712 165.42 120.165 164.536C115.798 162.039 108.554 159.296 103.063 158.058C100.314 157.439 97.037 156.695 95.7806 156.406C93.0729 155.784 77.3645 155.815 73.1523 156.452ZM190.483 156.46C182.014 157.764 176.088 159.592 168.519 163.239C163.71 165.556 162.609 166.86 166.566 165.554C167.56 165.225 171.48 164.348 175.276 163.604C180.924 162.497 184.176 162.214 193.162 162.051C205.968 161.819 212.265 162.309 220.55 164.179C223.851 164.925 226.618 165.468 226.7 165.386C226.875 165.211 229.058 160.151 229.058 159.92C229.058 159.715 224.822 158.647 221.324 157.97C211.27 156.027 197.634 155.359 190.483 156.46Z" fill="white"/>
<path d="M26.82 224.58C29.06 224.98 30.96 226.16 32.52 228.12C34.08 230.08 34.86 232.3 34.86 234.78C34.86 236.9 34.3 238.82 33.18 240.54C32.1 242.22 30.52 243.56 28.44 244.56C26.36 245.52 23.94 246 21.18 246H4.5V204.3H20.4C23.24 204.3 25.68 204.78 27.72 205.74C29.76 206.7 31.3 208 32.34 209.64C33.38 211.24 33.9 213.04 33.9 215.04C33.9 217.44 33.26 219.44 31.98 221.04C30.7 222.64 28.98 223.82 26.82 224.58ZM11.34 221.82H19.8C22.04 221.82 23.78 221.32 25.02 220.32C26.3 219.28 26.94 217.8 26.94 215.88C26.94 214 26.3 212.54 25.02 211.5C23.78 210.42 22.04 209.88 19.8 209.88H11.34V221.82ZM20.58 240.42C22.9 240.42 24.72 239.86 26.04 238.74C27.36 237.62 28.02 236.06 28.02 234.06C28.02 232.02 27.32 230.4 25.92 229.2C24.52 228 22.66 227.4 20.34 227.4H11.34V240.42H20.58ZM45.773 208.56C44.533 208.56 43.493 208.14 42.653 207.3C41.813 206.46 41.393 205.42 41.393 204.18C41.393 202.94 41.813 201.9 42.653 201.06C43.493 200.22 44.533 199.8 45.773 199.8C46.973 199.8 47.993 200.22 48.833 201.06C49.673 201.9 50.093 202.94 50.093 204.18C50.093 205.42 49.673 206.46 48.833 207.3C47.993 208.14 46.973 208.56 45.773 208.56ZM49.133 212.94V246H42.293V212.94H49.133ZM64.9533 217.86C66.1133 216.26 67.6933 214.96 69.6933 213.96C71.7333 212.92 73.9933 212.4 76.4733 212.4C79.3933 212.4 82.0333 213.1 84.3933 214.5C86.7533 215.9 88.6133 217.9 89.9733 220.5C91.3333 223.06 92.0133 226 92.0133 229.32C92.0133 232.64 91.3333 235.62 89.9733 238.26C88.6133 240.86 86.7333 242.9 84.3333 244.38C81.9733 245.82 79.3533 246.54 76.4733 246.54C73.9133 246.54 71.6333 246.04 69.6333 245.04C67.6733 244.04 66.1133 242.76 64.9533 241.2V246H58.1133V201.6H64.9533V217.86ZM85.0533 229.32C85.0533 227.04 84.5733 225.08 83.6133 223.44C82.6933 221.76 81.4533 220.5 79.8933 219.66C78.3733 218.78 76.7333 218.34 74.9733 218.34C73.2533 218.34 71.6133 218.78 70.0533 219.66C68.5333 220.54 67.2933 221.82 66.3333 223.5C65.4133 225.18 64.9533 227.16 64.9533 229.44C64.9533 231.72 65.4133 233.72 66.3333 235.44C67.2933 237.12 68.5333 238.4 70.0533 239.28C71.6133 240.16 73.2533 240.6 74.9733 240.6C76.7333 240.6 78.3733 240.16 79.8933 239.28C81.4533 238.36 82.6933 237.04 83.6133 235.32C84.5733 233.6 85.0533 231.6 85.0533 229.32ZM105.617 201.6V246H98.7773V201.6H105.617ZM118.078 208.56C116.838 208.56 115.798 208.14 114.958 207.3C114.118 206.46 113.698 205.42 113.698 204.18C113.698 202.94 114.118 201.9 114.958 201.06C115.798 200.22 116.838 199.8 118.078 199.8C119.278 199.8 120.298 200.22 121.138 201.06C121.978 201.9 122.398 202.94 122.398 204.18C122.398 205.42 121.978 206.46 121.138 207.3C120.298 208.14 119.278 208.56 118.078 208.56ZM121.438 212.94V246H114.598V212.94H121.438ZM144.758 246.54C141.638 246.54 138.818 245.84 136.298 244.44C133.778 243 131.798 241 130.358 238.44C128.918 235.84 128.198 232.84 128.198 229.44C128.198 226.08 128.938 223.1 130.418 220.5C131.898 217.9 133.918 215.9 136.478 214.5C139.038 213.1 141.898 212.4 145.058 212.4C148.218 212.4 151.078 213.1 153.638 214.5C156.198 215.9 158.218 217.9 159.698 220.5C161.178 223.1 161.918 226.08 161.918 229.44C161.918 232.8 161.158 235.78 159.638 238.38C158.118 240.98 156.038 243 153.398 244.44C150.798 245.84 147.918 246.54 144.758 246.54ZM144.758 240.6C146.518 240.6 148.158 240.18 149.678 239.34C151.238 238.5 152.498 237.24 153.458 235.56C154.418 233.88 154.898 231.84 154.898 229.44C154.898 227.04 154.438 225.02 153.518 223.38C152.598 221.7 151.378 220.44 149.858 219.6C148.338 218.76 146.698 218.34 144.938 218.34C143.178 218.34 141.538 218.76 140.018 219.6C138.538 220.44 137.358 221.7 136.478 223.38C135.598 225.02 135.158 227.04 135.158 229.44C135.158 233 136.058 235.76 137.858 237.72C139.698 239.64 141.998 240.6 144.758 240.6ZM195.62 204.3V209.88H184.52V246H177.68V209.88H166.52V204.3H195.62ZM232.847 228.66C232.847 229.9 232.767 231.02 232.607 232.02H207.347C207.547 234.66 208.527 236.78 210.287 238.38C212.047 239.98 214.207 240.78 216.767 240.78C220.447 240.78 223.047 239.24 224.567 236.16H231.947C230.947 239.2 229.127 241.7 226.487 243.66C223.887 245.58 220.647 246.54 216.767 246.54C213.607 246.54 210.767 245.84 208.247 244.44C205.767 243 203.807 241 202.367 238.44C200.967 235.84 200.267 232.84 200.267 229.44C200.267 226.04 200.947 223.06 202.307 220.5C203.707 217.9 205.647 215.9 208.127 214.5C210.647 213.1 213.527 212.4 216.767 212.4C219.887 212.4 222.667 213.08 225.107 214.44C227.547 215.8 229.447 217.72 230.807 220.2C232.167 222.64 232.847 225.46 232.847 228.66ZM225.707 226.5C225.667 223.98 224.767 221.96 223.007 220.44C221.247 218.92 219.067 218.16 216.467 218.16C214.107 218.16 212.087 218.92 210.407 220.44C208.727 221.92 207.727 223.94 207.407 226.5H225.707ZM237.298 229.44C237.298 226.04 237.978 223.06 239.338 220.5C240.738 217.9 242.658 215.9 245.098 214.5C247.538 213.1 250.338 212.4 253.498 212.4C257.498 212.4 260.798 213.36 263.398 215.28C266.038 217.16 267.818 219.86 268.738 223.38H261.358C260.758 221.74 259.798 220.46 258.478 219.54C257.158 218.62 255.498 218.16 253.498 218.16C250.698 218.16 248.458 219.16 246.778 221.16C245.138 223.12 244.318 225.88 244.318 229.44C244.318 233 245.138 235.78 246.778 237.78C248.458 239.78 250.698 240.78 253.498 240.78C257.458 240.78 260.078 239.04 261.358 235.56H268.738C267.778 238.92 265.978 241.6 263.338 243.6C260.698 245.56 257.418 246.54 253.498 246.54C250.338 246.54 247.538 245.84 245.098 244.44C242.658 243 240.738 241 239.338 238.44C237.978 235.84 237.298 232.84 237.298 229.44Z" fill="white"/>
</svg>
