<svg width="506" height="180" viewBox="0 0 506 180" fill="none" xmlns="http://www.w3.org/2000/svg">
<path fill-rule="evenodd" clip-rule="evenodd" d="M126.701 0.726459C119.746 2.2374 117.749 3.61113 105.694 15.1825C102.6 18.1524 98.4084 21.7799 96.3795 23.2432C84.2837 31.9679 76.8951 38.2904 69.6522 46.1158C62.8925 53.4181 60.7366 55.8766 60.9257 56.0653C61.1534 56.2936 65.8156 55.1171 69.5306 53.8945C74.3031 52.3236 80.9261 49.2615 84.2639 47.0833C88.8548 44.0871 89.0488 44.1123 85.6537 47.2612C79.2085 53.239 67.6549 58.2387 60.1125 58.3127C58.3525 58.3298 57.5398 59.0057 50.2009 66.5534C45.8045 71.0761 41.6042 75.4449 40.8675 76.2623L39.5281 77.7491L41.939 77.368C45.9567 76.7334 52.0252 74.9984 57.1626 73.0163C62.8705 70.814 73.5434 65.3303 76.2275 63.2207C79.5664 60.5965 79.778 60.827 76.7633 63.8038C69.4234 71.052 58.585 76.6305 47.6325 78.7975C44.6928 79.3796 43.9026 79.8491 40.0639 83.2955C37.7065 85.4121 34.1995 88.681 32.2702 90.5591C30.3409 92.4378 26.6072 95.904 23.974 98.2623C17.3413 104.201 17.6493 103.89 18.4005 103.89C18.7562 103.89 23.053 102.572 27.9482 100.962C35.8453 98.3636 42.5439 96.4094 52.1184 93.9112C59.1765 92.069 72.9069 87.4719 79.71 84.6724C85.0622 82.47 95.5764 76.7538 100.175 73.547C108.968 67.4137 114.484 61.5891 118.139 54.5795C120.532 49.9904 121.231 47.415 121.231 43.1931C121.231 35.6678 117.442 31.4041 109.416 29.8974C103.214 28.7333 102.917 28.5087 107.034 28.0997C115.63 27.2459 122.842 30.9008 125.039 37.2238C125.997 39.9798 125.979 46.7424 125.007 49.7557C119.951 65.4214 103.272 79.483 78.1027 89.2964C68.8421 92.9073 58.5272 95.8005 41.2999 99.6194L36.3136 100.725L22.9196 114.288C15.5529 121.747 7.89855 129.018 5.90928 130.445C3.92054 131.872 2.29291 133.185 2.29291 133.362C2.29291 133.539 3.64302 133.967 5.29315 134.314C9.00542 135.093 12.4616 134.468 17.0263 132.192C21.5813 129.922 24.9641 127.246 31.2667 120.929L36.7684 115.414L33.3267 119.944C31.4333 122.435 27.7896 126.671 25.2292 129.357L20.5735 134.241L23.0862 133.907C24.4679 133.724 26.5628 133.118 27.7414 132.563C29.9895 131.502 38.4459 123.38 42.5064 118.38C46.1603 113.883 51.775 107.582 53.9871 105.498C55.5457 104.03 55.0195 105.019 51.565 110.054C49.1375 113.591 45.4788 118.618 43.4343 121.225C41.3899 123.833 39.8158 126.064 39.9363 126.184C40.0569 126.305 41.6406 125.662 43.4552 124.754C45.6309 123.667 48.6735 121.272 52.3879 117.724L58.0214 112.344L61.0972 112.717C67.4395 113.488 77.6076 116.678 82.2264 119.345L84.9057 120.893L83.1849 122.119C81.6456 123.215 79.9778 125.987 79.9778 127.448C79.9778 127.747 81.0022 127.454 82.2548 126.795C84.5243 125.601 88.6335 125.312 94.5751 125.926L96.5815 126.134L96.5842 145.947L96.5863 165.76L93.7736 163.047C89.277 158.711 88.5173 158.092 83.996 155.086C73.3103 147.983 63.5022 144.289 49.7075 142.175C42.1576 141.018 29.4376 141.364 20.2906 142.976C16.782 143.594 13.8047 143.993 13.674 143.862C13.5433 143.731 14.2092 142.662 15.1543 141.485C16.0989 140.309 16.7118 139.087 16.5157 138.77C16.1026 138.101 13.0552 138.009 12.0684 138.636C11.3285 139.107 4.43594 149.457 4.43594 150.099C4.43594 150.319 5.4062 152.936 6.59237 155.914L8.7488 161.33L4.2286 166.901C-0.373025 172.572 -0.911997 173.987 1.14049 175.005C1.62696 175.246 20.7096 175.507 43.5463 175.583L85.0675 175.722L87.9344 177.076C91.3798 178.703 97.2159 180 101.089 180C104.538 180 111.208 178.352 113.913 176.832C115.884 175.725 116.348 175.712 154.866 175.707C176.294 175.705 195.067 175.553 196.584 175.371C198.698 175.117 199.465 174.771 199.867 173.888C200.319 172.895 199.769 171.956 195.905 167.122C193.437 164.035 191.418 161.385 191.417 161.235C191.416 161.083 192.506 158.448 193.838 155.377L196.26 149.794L192.83 144.128C190.943 141.011 187.191 134.843 184.491 130.421C181.791 126 177.605 119.084 175.188 115.053C170.15 106.649 171.415 107.391 160.609 106.497C143.938 105.119 124.156 108.548 116.255 114.186L114.534 115.414L118.82 115.776C122.029 116.047 123.712 115.933 125.517 115.322C135.706 111.874 148.803 110.409 160.106 111.456C164.066 111.822 167.306 112.273 167.306 112.457C167.306 112.641 169.261 115.914 171.65 119.731C178.345 130.427 186.194 143.599 185.981 143.78C185.876 143.87 182.174 143.36 177.754 142.646C170.721 141.51 168.512 141.38 160.074 141.606C153.182 141.79 148.967 142.179 145.305 142.967C130.47 146.161 117.089 152.871 107.569 161.891L103.283 165.952L103.143 146.362C103.065 135.588 103.094 126.68 103.207 126.567C103.519 126.255 109.454 129.583 111.664 131.308C113.296 132.582 113.669 132.695 113.937 131.995C114.621 130.213 111.516 126.387 107.837 124.479C104.899 122.956 107.247 122.859 111.417 124.332C113.964 125.231 115.408 126.136 116.686 127.629C118.591 129.855 119.402 129.587 118.818 126.925C118.547 125.691 118.655 125.33 119.298 125.33C120.589 125.33 125.779 127.848 127.537 129.327C129.411 130.906 129.875 130.664 129.237 128.439C128.464 125.742 127.366 124.515 124.359 122.99L121.499 121.538L123.642 121.889C127.495 122.519 132.092 124.299 134.047 125.918L135.965 127.506L136.138 126.115C136.651 121.979 129.035 118.189 118.569 117.375L114.032 117.022L109.09 109.786C106.372 105.806 104.135 102.286 104.118 101.963C104.101 101.641 104.6 100.917 105.228 100.355C105.855 99.7936 107.662 97.5891 109.244 95.4564C110.825 93.3237 113.144 90.9359 114.398 90.1507C115.652 89.365 116.798 88.576 116.945 88.3975C117.092 88.2185 118.057 87.4381 119.088 86.6625C120.12 85.887 121.495 84.8027 122.145 84.2533C122.794 83.7044 124.482 82.3039 125.895 81.1413C132.476 75.7274 138.276 67.5825 142.711 57.5275C144.171 54.2161 144.962 49.2942 145.271 41.5926C145.596 33.4692 145.659 33.1107 146.982 31.7884C148.681 30.0909 153.096 28.8673 157.55 28.8587C164.352 28.8458 173.401 30.2035 177.819 31.8993C180.221 32.8218 176.277 25.0972 172.329 21.1475C168.936 17.7531 163.1 14.4161 158.562 13.2755C156.454 12.7454 155.221 11.8728 151.865 8.53576C147.128 3.82606 143.655 1.78503 138.525 0.697516C134.097 -0.240994 131.121 -0.23349 126.701 0.726459ZM135.429 10.2959L133.822 10.9863L135.87 11.3754C137.34 11.6541 137.779 11.9446 137.427 12.4024C136.348 13.8018 136.333 14.8995 137.373 16.2223C138.65 17.8469 139.945 17.9648 141.62 16.6082C143.386 15.1777 143.273 12.4399 141.382 10.8121C139.763 9.4196 137.854 9.25398 135.429 10.2959ZM152.094 17.4138C151.338 17.6303 151.255 17.8142 151.766 18.1304C152.26 18.4359 152.018 18.7849 150.907 19.3669L149.36 20.1779L151.503 20.5022C158.851 21.6133 166.528 23.3284 170.789 24.8099C173.365 25.706 167.764 21.6443 163.678 19.6526C159.311 17.5248 154.767 16.6463 152.094 17.4138ZM95.4859 56.5069C93.3825 58.7034 84.4975 65.6712 79.71 68.8801C76.7429 70.8681 65.2268 77.5728 60.5775 80.0179C54.7227 83.0982 64.4285 79.6374 71.6736 76.0623C81.433 71.246 89.4206 65.31 94.2488 59.2855C98.2793 54.2563 98.8338 53.0123 95.4859 56.5069ZM95.1805 96.6608L88.1492 103.815L92.0999 110.363C94.2729 113.963 96.0506 117.111 96.0506 117.357C96.0506 117.86 97.2367 118.151 101.102 118.598C103.649 118.892 106.766 118.092 106.766 117.142C106.766 116.91 104.336 113.441 101.366 109.435C98.3961 105.428 95.839 101.818 95.6836 101.413C95.5282 101.008 96.1304 99.8467 97.0208 98.8315C98.9164 96.672 102.595 90.5489 102.368 89.9315C102.282 89.6978 99.0476 92.7261 95.1805 96.6608ZM72.4772 100.481C70.9932 100.98 68.6321 102.597 66.3358 104.686L62.6048 108.078L65.2643 108.471C72.1022 109.48 83.4281 114.211 88.1021 118.011C91.6858 120.924 92.9443 120.738 90.5505 117.65C89.5974 116.42 88.6785 115.293 88.5082 115.146C88.3378 114.998 86.4412 112.408 84.2939 109.389C82.1466 106.371 79.5739 103.397 78.5763 102.78C77.5359 102.136 76.7633 101.221 76.7633 100.63C76.7633 99.397 75.7941 99.3632 72.4772 100.481ZM27.4735 147.065C22.6935 147.726 14.1192 149.589 11.7957 150.473C10.4364 150.989 10.4343 151.001 11.3135 152.941C12.063 154.594 12.4011 154.848 13.5401 154.609C14.2789 154.454 17.8969 153.665 21.5802 152.856C27.571 151.54 29.3508 151.384 38.4566 151.379C45.9524 151.376 49.8366 151.616 53.1899 152.292C64.3964 154.55 74.3015 158.771 82.1209 164.619C86.1766 167.652 91.0011 170.223 91.57 169.653C91.9858 169.237 82.2939 160.326 78.969 158.067C73.6152 154.43 65.9597 151.064 58.6225 149.12C49.5195 146.709 36.3478 145.841 27.4735 147.065ZM152.305 146.997C149.506 147.383 145.952 147.965 144.407 148.291C137.186 149.815 126.986 154.129 120.983 158.198C117.62 160.478 108.713 168.727 109.147 169.161C109.693 169.707 113.917 167.543 117.613 164.821C126.611 158.197 134.035 154.939 146.144 152.301C149.41 151.589 152.788 151.377 160.342 151.409C170.091 151.451 174.19 151.915 183.135 153.991C185.074 154.44 186.959 154.809 187.323 154.809C187.936 154.809 189.273 151.981 189.273 150.683C189.273 150.06 181.861 148.166 176.077 147.31C169.896 146.395 157.835 146.236 152.305 146.997ZM30.1523 156.452C23.1639 157.507 14.7927 159.277 14.2596 159.81C14.153 159.917 14.3946 160.825 14.797 161.828C15.1993 162.831 15.6703 164.057 15.8433 164.55C16.1299 165.368 16.4128 165.381 19.0032 164.694C27.6718 162.398 30.716 162.094 45.1536 162.085C60.1751 162.075 63.1904 162.391 74.7542 165.188C77.6275 165.883 79.9778 166.382 79.9778 166.297C79.9778 166.212 78.7118 165.42 77.1651 164.536C72.7976 162.039 65.5542 159.296 60.0632 158.058C57.3142 157.439 54.037 156.695 52.7806 156.406C50.0729 155.784 34.3645 155.815 30.1523 156.452ZM147.483 156.46C139.014 157.764 133.088 159.592 125.519 163.239C120.71 165.556 119.609 166.86 123.566 165.554C124.56 165.225 128.48 164.348 132.276 163.604C137.924 162.497 141.176 162.214 150.162 162.051C162.968 161.819 169.265 162.309 177.55 164.179C180.851 164.925 183.618 165.468 183.7 165.386C183.875 165.211 186.058 160.151 186.058 159.92C186.058 159.715 181.822 158.647 178.324 157.97C168.27 156.027 154.634 155.359 147.483 156.46Z" fill="black"/>
<path d="M246.82 94.58C249.06 94.98 250.96 96.16 252.52 98.12C254.08 100.08 254.86 102.3 254.86 104.78C254.86 106.9 254.3 108.82 253.18 110.54C252.1 112.22 250.52 113.56 248.44 114.56C246.36 115.52 243.94 116 241.18 116H224.5V74.3H240.4C243.24 74.3 245.68 74.78 247.72 75.74C249.76 76.7 251.3 78 252.34 79.64C253.38 81.24 253.9 83.04 253.9 85.04C253.9 87.44 253.26 89.44 251.98 91.04C250.7 92.64 248.98 93.82 246.82 94.58ZM231.34 91.82H239.8C242.04 91.82 243.78 91.32 245.02 90.32C246.3 89.28 246.94 87.8 246.94 85.88C246.94 84 246.3 82.54 245.02 81.5C243.78 80.42 242.04 79.88 239.8 79.88H231.34V91.82ZM240.58 110.42C242.9 110.42 244.72 109.86 246.04 108.74C247.36 107.62 248.02 106.06 248.02 104.06C248.02 102.02 247.32 100.4 245.92 99.2C244.52 98 242.66 97.4 240.34 97.4H231.34V110.42H240.58ZM265.773 78.56C264.533 78.56 263.493 78.14 262.653 77.3C261.813 76.46 261.393 75.42 261.393 74.18C261.393 72.94 261.813 71.9 262.653 71.06C263.493 70.22 264.533 69.8 265.773 69.8C266.973 69.8 267.993 70.22 268.833 71.06C269.673 71.9 270.093 72.94 270.093 74.18C270.093 75.42 269.673 76.46 268.833 77.3C267.993 78.14 266.973 78.56 265.773 78.56ZM269.133 82.94V116H262.293V82.94H269.133ZM284.953 87.86C286.113 86.26 287.693 84.96 289.693 83.96C291.733 82.92 293.993 82.4 296.473 82.4C299.393 82.4 302.033 83.1 304.393 84.5C306.753 85.9 308.613 87.9 309.973 90.5C311.333 93.06 312.013 96 312.013 99.32C312.013 102.64 311.333 105.62 309.973 108.26C308.613 110.86 306.733 112.9 304.333 114.38C301.973 115.82 299.353 116.54 296.473 116.54C293.913 116.54 291.633 116.04 289.633 115.04C287.673 114.04 286.113 112.76 284.953 111.2V116H278.113V71.6H284.953V87.86ZM305.053 99.32C305.053 97.04 304.573 95.08 303.613 93.44C302.693 91.76 301.453 90.5 299.893 89.66C298.373 88.78 296.733 88.34 294.973 88.34C293.253 88.34 291.613 88.78 290.053 89.66C288.533 90.54 287.293 91.82 286.333 93.5C285.413 95.18 284.953 97.16 284.953 99.44C284.953 101.72 285.413 103.72 286.333 105.44C287.293 107.12 288.533 108.4 290.053 109.28C291.613 110.16 293.253 110.6 294.973 110.6C296.733 110.6 298.373 110.16 299.893 109.28C301.453 108.36 302.693 107.04 303.613 105.32C304.573 103.6 305.053 101.6 305.053 99.32ZM325.617 71.6V116H318.777V71.6H325.617ZM338.078 78.56C336.838 78.56 335.798 78.14 334.958 77.3C334.118 76.46 333.698 75.42 333.698 74.18C333.698 72.94 334.118 71.9 334.958 71.06C335.798 70.22 336.838 69.8 338.078 69.8C339.278 69.8 340.298 70.22 341.138 71.06C341.978 71.9 342.398 72.94 342.398 74.18C342.398 75.42 341.978 76.46 341.138 77.3C340.298 78.14 339.278 78.56 338.078 78.56ZM341.438 82.94V116H334.598V82.94H341.438ZM364.758 116.54C361.638 116.54 358.818 115.84 356.298 114.44C353.778 113 351.798 111 350.358 108.44C348.918 105.84 348.198 102.84 348.198 99.44C348.198 96.08 348.938 93.1 350.418 90.5C351.898 87.9 353.918 85.9 356.478 84.5C359.038 83.1 361.898 82.4 365.058 82.4C368.218 82.4 371.078 83.1 373.638 84.5C376.198 85.9 378.218 87.9 379.698 90.5C381.178 93.1 381.918 96.08 381.918 99.44C381.918 102.8 381.158 105.78 379.638 108.38C378.118 110.98 376.038 113 373.398 114.44C370.798 115.84 367.918 116.54 364.758 116.54ZM364.758 110.6C366.518 110.6 368.158 110.18 369.678 109.34C371.238 108.5 372.498 107.24 373.458 105.56C374.418 103.88 374.898 101.84 374.898 99.44C374.898 97.04 374.438 95.02 373.518 93.38C372.598 91.7 371.378 90.44 369.858 89.6C368.338 88.76 366.698 88.34 364.938 88.34C363.178 88.34 361.538 88.76 360.018 89.6C358.538 90.44 357.358 91.7 356.478 93.38C355.598 95.02 355.158 97.04 355.158 99.44C355.158 103 356.058 105.76 357.858 107.72C359.698 109.64 361.998 110.6 364.758 110.6ZM415.62 74.3V79.88H404.52V116H397.68V79.88H386.52V74.3H415.62ZM452.847 98.66C452.847 99.9 452.767 101.02 452.607 102.02H427.347C427.547 104.66 428.527 106.78 430.287 108.38C432.047 109.98 434.207 110.78 436.767 110.78C440.447 110.78 443.047 109.24 444.567 106.16H451.947C450.947 109.2 449.127 111.7 446.487 113.66C443.887 115.58 440.647 116.54 436.767 116.54C433.607 116.54 430.767 115.84 428.247 114.44C425.767 113 423.807 111 422.367 108.44C420.967 105.84 420.267 102.84 420.267 99.44C420.267 96.04 420.947 93.06 422.307 90.5C423.707 87.9 425.647 85.9 428.127 84.5C430.647 83.1 433.527 82.4 436.767 82.4C439.887 82.4 442.667 83.08 445.107 84.44C447.547 85.8 449.447 87.72 450.807 90.2C452.167 92.64 452.847 95.46 452.847 98.66ZM445.707 96.5C445.667 93.98 444.767 91.96 443.007 90.44C441.247 88.92 439.067 88.16 436.467 88.16C434.107 88.16 432.087 88.92 430.407 90.44C428.727 91.92 427.727 93.94 427.407 96.5H445.707ZM457.298 99.44C457.298 96.04 457.978 93.06 459.338 90.5C460.738 87.9 462.658 85.9 465.098 84.5C467.538 83.1 470.338 82.4 473.498 82.4C477.498 82.4 480.798 83.36 483.398 85.28C486.038 87.16 487.818 89.86 488.738 93.38H481.358C480.758 91.74 479.798 90.46 478.478 89.54C477.158 88.62 475.498 88.16 473.498 88.16C470.698 88.16 468.458 89.16 466.778 91.16C465.138 93.12 464.318 95.88 464.318 99.44C464.318 103 465.138 105.78 466.778 107.78C468.458 109.78 470.698 110.78 473.498 110.78C477.458 110.78 480.078 109.04 481.358 105.56H488.738C487.778 108.92 485.978 111.6 483.338 113.6C480.698 115.56 477.418 116.54 473.498 116.54C470.338 116.54 467.538 115.84 465.098 114.44C462.658 113 460.738 111 459.338 108.44C457.978 105.84 457.298 102.84 457.298 99.44Z" fill="black"/>
</svg>
